<svg xmlns="http://www.w3.org/2000/svg" viewBox="0 0 64 64"><defs><style>.cls-1{fill:#ec7a5c;}.cls-2{fill:none;stroke:#ec7a5c;stroke-linecap:round;stroke-linejoin:round;stroke-width:2px;}</style></defs><title>Asset 6</title><g id="Layer_2" data-name="Layer 2"><g id="Layer_1-2" data-name="Layer 1"><path class="cls-1" d="M32,3A29,29,0,1,1,3,32,29,29,0,0,1,32,3m0-3A32,32,0,1,0,64,32,32,32,0,0,0,32,0Z"/><line class="cls-2" x1="51.5" y1="32" x2="14.9" y2="32"/><path class="cls-1" d="M28.57,22.4a1,1,0,0,1-.3,1.38L15.36,32l12.91,8.22a1,1,0,0,1,.3,1.38,1,1,0,0,1-1.38.31L13,32.84a1,1,0,0,1,0-1.68l14.23-9.07a1,1,0,0,1,.54-.15A1,1,0,0,1,28.57,22.4Z"/></g></g></svg>